<svg id="Capa_1" enable-background="new 0 0 512 512" height="512" viewBox="0 0 512 512" width="512" xmlns="http://www.w3.org/2000/svg"><g><path d="m489.5 7.494h-467c-8.284 0-15 6.716-15 15v320c0 8.284 6.716 15 15 15s15-6.716 15-15v-305h437v305c0 8.284 6.716 15 15 15s15-6.716 15-15v-320c0-8.284-6.716-15-15-15z" fill="#5c91ab"/><g><path d="m489.5 7.494h-30c8.284 0 15 6.716 15 15v320c0 8.284 6.716 15 15 15s15-6.716 15-15v-320c0-8.284-6.716-15-15-15z" fill="#5788a1"/></g><path d="m401 359.502c0 80.021-64.89 144.998-145 144.998-80.037 0-145-64.933-145-144.998 0-79.896 64.736-144.998 145-144.998 80.207 0 145 65.044 145 144.998z" fill="#fff7e6"/><path d="m256 214.504c-5.089 0-10.116.264-15.068.775 73.101 7.54 129.936 69.341 129.936 144.223 0 74.937-56.908 136.678-129.93 144.221 4.952.512 9.976.777 15.062.777 80.11 0 145-64.977 145-144.998 0-79.954-64.793-144.998-145-144.998z" fill="#ebe3d4"/><g fill="#00b0ff"><path d="m373.324 444.704c-17.816 24.503-43.127 43.206-72.562 52.752-2.219.72-4.317-1.4-3.596-3.619l16.799-51.693c.383-1.179 1.482-1.978 2.722-1.978h54.307c2.333 0 3.702 2.652 2.33 4.538z"/><path d="m301.662 226.63-43.979 31.943c-1.003.729-2.361.729-3.365 0l-43.979-31.943c-1.886-1.37-1.438-4.318.778-5.039 14.135-4.598 29.215-7.087 44.883-7.087s30.748 2.489 44.883 7.087c2.217.721 2.665 3.669.779 5.039z"/><path d="m159.495 329.914-43.957 31.927c-1.878 1.364-4.537.039-4.538-2.283 0-.019 0-.037 0-.056 0-31.869 10.282-61.342 27.72-85.275 1.37-1.881 4.307-1.393 5.026.82l16.79 51.665c.383 1.181-.037 2.473-1.041 3.202z"/><path d="m211.238 497.456c-29.434-9.546-54.746-28.249-72.562-52.752-1.372-1.887-.003-4.538 2.329-4.538h54.307c1.24 0 2.339.798 2.722 1.978l16.799 51.693c.722 2.218-1.376 4.338-3.595 3.619z"/><path d="m401 359.502v.056c-.001 2.322-2.66 3.647-4.538 2.283l-43.957-31.927c-1.004-.729-1.424-2.021-1.04-3.201l16.79-51.665c.719-2.213 3.655-2.701 5.026-.82 17.437 23.932 27.719 53.406 27.719 85.274z"/></g><g fill="#0091ea"><path d="m301.661 226.633-7.091 5.153c-16.251-8.768-34.381-14.514-53.636-16.502.02 0 .03 0 .05-.01 4.932-.512 9.944-.773 15.016-.773 15.669 0 30.745 2.491 44.887 7.091 2.21.722 2.662 3.665.774 5.041z"/><path d="m373.325 444.708c-17.818 24.497-43.129 43.199-72.559 52.751-2.22.713-4.319-1.406-3.606-3.626l3.234-9.944c18.351-11.018 34.07-25.984 45.972-43.721h24.628c2.331 0 3.697 2.652 2.331 4.54z"/><path d="m400.997 359.505v.05c0 2.32-2.652 3.646-4.53 2.29l-26.587-19.315c-1.627-13.991-5.263-27.39-10.597-39.885l8.969-27.601c.723-2.21 3.656-2.702 5.032-.814 17.438 23.926 27.713 53.405 27.713 85.275z"/></g><path d="m253.048 306.111-48.475 35.218c-1.76 1.279-2.497 3.546-1.824 5.615l18.516 56.985c.672 2.069 2.601 3.47 4.776 3.47h59.918c2.176 0 4.104-1.401 4.776-3.47l18.516-56.985c.672-2.069-.064-4.336-1.824-5.615l-48.475-35.218c-1.76-1.279-4.144-1.279-5.904 0z" fill="#ff4b22"/><g><path d="m489.5 0h-467c-12.407 0-22.5 10.093-22.5 22.5v41.098c0 4.142 3.358 7.5 7.5 7.5s7.5-3.358 7.5-7.5v-41.098c0-4.136 3.364-7.5 7.5-7.5h467c4.136 0 7.5 3.364 7.5 7.5v265.189c0 4.142 3.358 7.5 7.5 7.5s7.5-3.358 7.5-7.5v-265.189c0-12.407-10.093-22.5-22.5-22.5z"/><path d="m504.5 312.414c-4.142 0-7.5 3.358-7.5 7.5v22.583c0 4.136-3.364 7.5-7.5 7.5s-7.5-3.364-7.5-7.5v-304.994c0-4.142-3.358-7.5-7.5-7.5h-437c-4.142 0-7.5 3.358-7.5 7.5v304.995c0 4.136-3.364 7.5-7.5 7.5s-7.5-3.364-7.5-7.5v-246.805c0-4.142-3.358-7.5-7.5-7.5s-7.5 3.358-7.5 7.5v246.804c0 12.407 10.093 22.5 22.5 22.5s22.5-10.093 22.5-22.5v-10.174h42.759.01s.006 0 .01 0h18.129c-1.333 7.44-2.098 14.861-2.329 22.484-.394 12.958.823 25.764 3.626 38.239.908 4.041 4.923 6.583 8.961 5.673 4.042-.908 6.582-4.92 5.673-8.961-1.555-6.923-2.56-14.002-3.029-21.137.388-.212.769-.444 1.134-.709l42.409-30.802 33.263 12.158 18.427 56.711-20.363 26.689h-52.676c-.459 0-.911.036-1.357.094-2.766-4.385-5.304-8.927-7.571-13.626-1.8-3.73-6.282-5.297-10.014-3.496-3.73 1.799-5.296 6.283-3.496 10.014 18.409 38.16 51.677 66.393 90.356 78.938h.001c14.901 4.83 31.025 7.408 47.077 7.408 83.996 0 152.462-68.13 152.499-152.427 0-.004.001-.008.001-.012v-.056c0-8.707-.751-17.955-2.404-27.182h60.904v10.174c0 12.407 10.093 22.5 22.5 22.5s22.5-10.093 22.5-22.5v-22.583c0-4.142-3.358-7.5-7.5-7.5zm-132.191 120.345c-.432-.055-.87-.091-1.314-.091h-52.676l-20.363-26.689 18.427-56.711 33.263-12.158c44.988 32.628 42.318 30.841 43.545 31.512-1.544 23.461-8.995 45.332-20.882 64.137zm-65.064 54.33 12.811-39.421h41.369c-14.327 17.103-32.786 30.797-54.18 39.421zm-106.8-152.027-33.262-12.157-16.304-50.17c-.133-.41-.299-.802-.478-1.186 14.498-17.376 33.194-31.131 54.517-39.694 1.016.954-1.406-.955 43.583 31.767v36.528zm192.733 15.127-33.539-24.359 12.796-39.376c11.947 18.972 19.192 40.728 20.743 63.735zm-47.445-113.904h22.927v20.55c-6.925-7.592-14.611-14.478-22.927-20.55zm-89.733 14.245-33.556-24.372c21.347-5.373 44.543-5.68 67.112 0zm-112.66 6.305v-20.55h22.927c-8.316 6.072-16.002 12.958-22.927 20.55zm273.391-83.573h-33.071v-33.021h33.071zm15-33.021h35.269v33.021h-35.269zm-63.071 33.021h-33.06v-33.021h33.06zm-96.68 34.583c-10.464-1.094-21.404-1.141-32.51.059v-19.643h33.06v19.643c-.184-.019-.367-.04-.55-.059zm-32.51-34.583v-33.021h33.06v33.021zm-15 0h-33.07v-33.021h33.07zm63.06-33.021h33.07v33.021h-33.07zm48.07-15v-33.02h33.06v33.02zm-15 0h-33.07v-33.02h33.07zm-48.07 0h-33.06v-33.02h33.06zm-48.06 0h-33.07v-33.02h33.07zm-48.07 0h-33.06v-33.02h33.06zm0 15v33.021h-33.06v-33.021zm-48.06 33.021h-33.071v-33.021h33.071zm-48.071 0h-35.269v-33.021h35.269zm0 15v33.023h-35.269v-33.023zm15 0h33.071v33.023h-33.071zm48.071 0h33.06v33.023h-33.06zm48.283 33.023h-.223v-33.023h33.07v22.024c-11.077 2.331-22.003 5.928-32.847 10.999zm95.907-10.999v-22.024h33.07v33.023h-.223c-11.699-5.471-22.618-8.846-32.847-10.999zm48.07 10.999v-33.023h33.06v33.023zm48.06-33.023h33.071v33.023h-33.071zm48.071 0h35.269v33.023h-35.269zm35.269-63.021h-35.269v-33.02h35.269zm-50.269 0h-33.071v-33.02h33.071zm-33.071-48.02v-32.219h33.071v32.219zm-15 0h-33.06v-32.219h33.06zm-48.06 0h-33.07v-32.219h33.07zm-48.07 0h-33.06v-32.219h33.06zm-48.06 0h-33.07v-32.219h33.07zm-48.07 0h-33.06v-32.219h33.06zm-48.06 0h-33.071v-32.219h33.071zm0 15v33.02h-33.071v-33.02zm-48.071 33.02h-35.269v-33.02h35.269zm-35.269 111.044h35.269v33.019h-35.269zm50.269 0h33.071v33.019h-33.071zm168.231 27.337c45.038-32.759 42.567-30.814 43.583-31.768 21.322 8.563 40.018 22.318 54.517 39.694-.179.384-.345.776-.478 1.186l-16.304 50.17-33.262 12.158-48.056-34.913zm120.16-27.337h33.071v33.019h-33.071zm48.071 0h35.269v33.019h-35.269zm35.269-159.064h-35.269v-32.219h35.269zm-386.731-32.219v32.219h-35.269v-32.219zm-35.269 239.302h35.269v33.019h-35.269zm50.269 33.019v-33.019h28.032c-5.956 10.464-10.611 21.528-13.906 33.019zm23.553 32.866c.017-.254.03-.508.048-.761 1.553-21.602 8.343-43.36 20.694-62.974l12.796 39.376zm137.178-36.948 45.562 33.101-17.403 53.56h-56.317l-17.403-53.56zm-64.056 134.427 12.817 39.438c-.234-.094-.47-.18-.703-.276-20.15-8.261-38.829-21.598-53.555-39.162zm30.35 45.155c-.257-1.365.589 1.634-16.552-51.233l20.363-26.689h59.792l20.363 26.689c-17.168 52.949-16.292 49.859-16.55 51.224-10.792 2.73-22.083 4.186-33.71 4.186-11.452 0-22.763-1.417-33.706-4.177zm166.405-208.519h28.032v33.019h-14.123c-3.295-11.488-7.951-22.553-13.909-33.019zm43.032 33.019v-33.019h35.269v33.019z"/></g></g></svg>