<?xml version="1.0" encoding="iso-8859-1"?>
<!-- Generator: Adobe Illustrator 19.0.0, SVG Export Plug-In . SVG Version: 6.00 Build 0)  -->
<svg version="1.1" id="Capa_1" xmlns="http://www.w3.org/2000/svg" xmlns:xlink="http://www.w3.org/1999/xlink" x="0px" y="0px"
	 viewBox="0 0 511.999 511.999" style="enable-background:new 0 0 511.999 511.999;" xml:space="preserve">
<path style="fill:#F9DCA2;" d="M331.623,288.228h2.836H444.59c16.185,0,29.311-13.114,29.311-29.301
	c0-8.093-3.284-15.418-8.583-20.727c-5.31-5.299-12.635-8.583-20.727-8.583H334.459v-76.811c0-18.105,12.453-33.843,30.068-38.012
	l139.869-33.094v-5.363c0-32.2-29.535-56.298-61.074-49.836L266.209,62.773c-6.738,1.386-13.68,1.386-20.418,0L68.678,26.499
	C37.139,20.038,7.604,44.136,7.604,76.336v5.363l140.051,33.096c17.625,4.169,30.078,19.906,30.078,38.022v124.215v11.195v169.01
	c0,16.185,13.125,29.311,29.311,29.311c8.093,0,15.418-3.284,20.717-8.583c5.299-5.31,8.583-12.635,8.583-20.727v-80.053"/>
<g>
	<path style="fill:#E5C691;" d="M177.733,133.047c0-18.116-12.453-33.853-30.078-38.022L9.539,62.387
		c-1.252,4.414-1.935,9.087-1.935,13.949v5.363l140.051,33.096c17.625,4.169,30.078,19.907,30.078,38.022L177.733,133.047
		L177.733,133.047z"/>
	<path style="fill:#E5C691;" d="M364.527,95.025c-17.615,4.169-30.068,19.907-30.068,38.012v19.769
		c0-18.105,12.453-33.843,30.068-38.012l139.869-33.095v-5.363c0-4.861-0.683-9.533-1.935-13.949L364.527,95.025z"/>
	<path style="fill:#E5C691;" d="M444.59,265.418H334.459h-2.837l-95.279,88.956v22.811l95.279-88.956h2.837H444.59
		c16.185,0,29.311-13.114,29.311-29.3c0-4.045-0.82-7.899-2.303-11.405C467.148,258.04,456.729,265.418,444.59,265.418z"/>
	<path style="fill:#E5C691;" d="M203.584,457.237v-169.01v-11.195V152.816c0-18.116-12.453-33.853-30.078-38.022l-22.433,0.977
		c15.794,5.283,26.659,20.125,26.659,37.044v124.215v11.195v169.01c0,16.185,13.125,29.311,29.311,29.311
		c4.64,0,9.025-1.084,12.925-3.004C210.265,478.766,203.584,468.782,203.584,457.237z"/>
</g>
<path style="fill:#455256;" d="M367.275,114.067v0.01l-2.768,0.649c-17.611,4.167-30.061,19.902-30.061,38.01v12.592l-130.96-15.147
	l-25.772-2.981l-0.395,0.061c-2.038-14.518-12.116-26.766-26.097-31.501c-1.166-0.395-2.362-0.74-3.579-1.034l-3.072-0.72v-0.01
	l26.046-66.682l75.158,15.39c6.742,1.379,13.677,1.379,20.419,0l75.026-15.37l26.036,66.672L367.275,114.067z"/>
<path style="fill:#7FDD36;" d="M355.15,288.157h-78.99l4.562,48.321H177.714V152.745c0-1.855-0.132-3.69-0.395-5.485l0.395-0.061
	l25.772,2.981l130.96,15.147v64.218h20.703V288.157z"/>
<circle style="fill:#F9DCA2;" cx="287.572" cy="336.551" r="65.384"/>
<path style="fill:#313C3F;" d="M203.485,150.18l-25.772-2.981l-0.395,0.061c-2.038-14.518-12.116-26.766-26.097-31.501l22.285-0.963
	C190.264,118.761,202.36,133.188,203.485,150.18z"/>
<path style="fill:#E5C691;" d="M263.885,336.55c0-28.819,18.652-53.265,44.537-61.971c-6.55-2.203-13.555-3.415-20.848-3.415
	c-36.112,0-65.386,29.274-65.386,65.386s29.274,65.386,65.386,65.386c7.293,0,14.298-1.212,20.848-3.415
	C282.537,389.816,263.885,365.369,263.885,336.55z"/>
<path style="fill:#70C129;" d="M203.586,152.816v183.661h-25.853v-59.443l-0.02-0.03V152.745c0-1.855-0.132-3.69-0.395-5.485
	l0.395-0.061l25.772,2.981C203.557,151.052,203.586,151.934,203.586,152.816z"/>
<path style="fill:#D67C05;" d="M352.959,336.548c0,28.875-18.706,53.37-44.671,62.028c-0.01,0.01-0.02,0.01-0.02,0.01
	c-6.499,2.17-13.454,3.346-20.693,3.346c-29.007,0-53.603-18.888-62.15-45.046c5.019-1.237,10.26-1.896,15.664-1.896
	c9.855,0,19.192,2.18,27.557,6.083c2.241,1.044,4.42,2.21,6.509,3.488c11.923-12.572,28.763-20.429,47.459-20.429
	c2.139,0,4.258,0.112,6.347,0.314c2.433-13.444,8.973-25.458,18.27-34.694C350.911,317.924,352.959,326.998,352.959,336.548z"/>
<path style="fill:#AD5F02;" d="M308.42,398.526c-0.041,0.01-0.091,0.03-0.132,0.051c-0.01,0.01-0.02,0.01-0.02,0.01
	c-6.499,2.17-13.454,3.346-20.693,3.346c-29.007,0-53.603-18.888-62.15-45.046c5.019-1.237,10.26-1.896,15.664-1.896
	c9.855,0,19.192,2.18,27.557,6.083C275.764,378.654,290.322,392.432,308.42,398.526z"/>
<path d="M490.706,31.203c-13.697-11.281-31.541-15.711-48.911-12.152L264.678,55.326c-5.759,1.184-11.597,1.184-17.361-0.001
	L70.204,19.051c-17.372-3.56-35.22,0.872-48.916,12.156C7.61,42.477,0,59.514,0,77.236v4.462c0,3.526,2.424,6.589,5.855,7.4
	l140.049,33.096c14.263,3.373,24.225,15.966,24.225,30.622v96.863c0,4.199,3.405,7.604,7.604,7.604l0,0
	c4.199,0,7.604-3.405,7.604-7.604v-93.875l141.518,16.367v57.444c0,4.199,3.405,7.604,7.604,7.604h13.103v43.403h-13.154
	c-12.684-10.64-29.021-17.063-46.833-17.063c-37.679,0-68.777,28.699-72.593,65.386h-29.644v-44.311
	c0-4.199-3.405-7.604-7.604-7.604l0,0c-4.199,0-7.604,3.405-7.604,7.604v171.864c0,20.24,15.98,37.274,36.216,37.646
	c10.116,0.186,19.657-3.668,26.797-10.81c6.967-6.981,10.805-16.25,10.805-26.099v-62.204c12.474,9.329,28.018,14.767,44.818,14.498
	c38.473-0.616,70.17-31.501,71.736-69.947c0.66-16.216-4.004-31.334-12.381-43.751h95.741c20.223,0,37.249-15.958,37.637-36.177
	c0.194-10.12-3.659-19.675-10.809-26.838c-6.982-6.968-16.25-10.805-26.099-10.805H342.063v-69.207
	c0-14.649,9.957-27.236,24.215-30.612l45.282-10.715c4.087-0.967,6.615-5.063,5.648-9.15l0,0c-0.967-4.087-5.063-6.615-9.15-5.649
	l-36.081,8.538l-20.378-52.171l93.249-19.098c12.787-2.621,25.918,0.611,36.031,8.861c9.946,8.115,15.72,20.066,15.909,32.875
	L441.815,88.69c-4.087,0.967-6.615,5.063-5.648,9.15l0,0c0.967,4.087,5.063,6.615,9.15,5.649l60.829-14.393
	c3.431-0.811,5.853-3.874,5.853-7.399v-4.465C512,59.51,504.388,42.471,490.706,31.203z M287.575,278.769
	c21.672,0,40.586,12,50.472,29.698c-7.067,8.171-12.191,17.704-15.066,28.062c-0.123,0-0.244-0.001-0.366-0.001
	c-18.223,0-35.303,6.577-48.707,18.641c-10.128-5.107-21.36-7.782-32.817-7.782c-3.396,0-6.785,0.243-10.137,0.712
	c-0.76-3.732-1.161-7.594-1.161-11.547C229.792,304.69,255.713,278.769,287.575,278.769z M222.383,472.588
	c-4.098,4.098-9.546,6.356-15.34,6.356c-11.97,0-21.707-9.737-21.707-21.707V344.155h29.644c1.373,13.2,6.285,25.36,13.758,35.528
	v77.555C228.739,463.03,226.48,468.483,222.383,472.588z M287.575,394.332c-22.4,0-41.849-12.821-51.433-31.502
	c1.644-0.14,3.295-0.236,4.95-0.236c10.661,0,21.067,2.922,30.094,8.451c1.23,0.753,2.604,1.12,3.968,1.119
	c2.032,0,4.042-0.813,5.52-2.371c11.044-11.645,25.938-18.058,41.94-18.058c1.819,0,3.708,0.093,5.614,0.278
	c3.95,0.387,7.513-2.322,8.216-6.214c1.314-7.262,3.977-14.114,7.843-20.279c0.693,3.573,1.069,7.257,1.069,11.03
	C345.356,368.411,319.434,394.332,287.575,394.332z M459.935,243.572c4.102,4.11,6.361,9.564,6.361,15.356
	c0,11.964-9.737,21.697-21.707,21.697h-81.82v-43.403h81.821C450.383,237.22,455.836,239.48,459.935,243.572z M31.121,42.81
	c10.114-8.251,23.25-11.479,36.031-8.861l93.119,19.072l-20.361,52.131L15.213,75.684C15.402,62.876,21.178,50.924,31.121,42.81z
	 M357.164,109.098c-18.105,6.732-30.309,23.956-30.309,43.708v4.057l-143.213-16.563c-3.963-14.369-14.617-26.093-28.907-31.302
	l20.655-52.881l68.869,14.105c7.792,1.603,15.694,1.603,23.476,0.001l68.746-14.079L357.164,109.098z"/>
<path d="M263.192,329.85c1.219,2.917,4.043,4.674,7.019,4.674c0.977,0,1.971-0.19,2.929-0.59c3.875-1.619,5.704-6.073,4.084-9.948
	l-5.674-13.575c-1.62-3.875-6.076-5.705-9.948-4.084c-3.875,1.619-5.704,6.073-4.084,9.948L263.192,329.85z"/>
<path d="M296.908,320.186c1.219,2.917,4.043,4.674,7.019,4.674c0.977,0,1.97-0.19,2.929-0.59c3.875-1.619,5.704-6.073,4.084-9.948
	l-5.673-13.576c-1.619-3.875-6.075-5.702-9.948-4.085c-3.875,1.619-5.704,6.073-4.084,9.948L296.908,320.186z"/>
<g>
</g>
<g>
</g>
<g>
</g>
<g>
</g>
<g>
</g>
<g>
</g>
<g>
</g>
<g>
</g>
<g>
</g>
<g>
</g>
<g>
</g>
<g>
</g>
<g>
</g>
<g>
</g>
<g>
</g>
</svg>
