<?xml version="1.0" encoding="iso-8859-1"?>
<!-- Generator: Adobe Illustrator 19.0.0, SVG Export Plug-In . SVG Version: 6.00 Build 0)  -->
<svg version="1.1" id="Capa_1" xmlns="http://www.w3.org/2000/svg" xmlns:xlink="http://www.w3.org/1999/xlink" x="0px" y="0px"
	 viewBox="0 0 497.371 497.371" style="enable-background:new 0 0 497.371 497.371;" xml:space="preserve">
<path style="fill:#FFFFFF;" d="M459.337,482.743H38.034c-13.166,0-23.406-10.24-23.406-23.406V38.034
	c0-13.166,10.24-23.406,23.406-23.406h421.303c13.166,0,23.406,10.24,23.406,23.406v421.303
	C482.743,472.503,472.503,482.743,459.337,482.743z"/>
<path style="fill:#ffcc29;" d="M482.743,125.806V38.034c0-13.166-10.24-23.406-23.406-23.406H38.034
	c-13.166,0-23.406,10.24-23.406,23.406v87.771H482.743z"/>
<path style="fill:#4D007E;" d="M459.337,497.371H38.034C17.554,497.371,0,479.817,0,459.337V38.034C0,17.554,17.554,0,38.034,0h421.303
	c20.48,0,38.034,17.554,38.034,38.034v421.303C497.371,479.817,479.817,497.371,459.337,497.371z M38.034,29.257
	c-4.389,0-8.777,4.389-8.777,8.777v421.303c0,4.389,4.389,8.777,8.777,8.777h421.303c4.389,0,8.777-4.389,8.777-8.777V38.034
	c0-4.389-4.389-8.777-8.777-8.777H38.034z"/>
<g style="opacity:0.1;">
	<path style="fill:#4D007E;" d="M329.143,14.629c-178.469,73.143-307.2,245.76-314.514,449.097c0-1.463,0-2.926,0-4.389V38.034
		c0-13.166,10.24-23.406,23.406-23.406C38.034,14.629,329.143,14.629,329.143,14.629z"/>
</g>
<rect style="fill:#4D007E;" x="14.629" y="111.177" width="468.114" height="29.257"/>
<g>
	<path style="fill:#4D007E;" d="M64.366,80.457c-5.851-5.851-5.851-14.629,0-20.48s16.091-5.851,20.48,0
		c5.851,5.851,5.851,14.629,0,20.48C78.994,86.309,70.217,86.309,64.366,80.457z"/>
	<path style="fill:#4D007E;" d="M114.103,80.457c-5.851-5.851-5.851-14.629,0-20.48s14.629-5.851,20.48,0s5.851,14.629,0,20.48
		C128.731,86.309,119.954,86.309,114.103,80.457z"/>
	<path style="fill:#4D007E;" d="M163.84,80.457c-5.851-5.851-5.851-14.629,0-20.48s14.629-5.851,20.48,0s5.851,14.629,0,20.48
		C178.469,86.309,169.691,86.309,163.84,80.457z"/>
	<path style="fill:#4D007E;" d="M422.766,84.846H250.149c-8.777,0-14.629-5.851-14.629-14.629s5.851-14.629,14.629-14.629h171.154
		c8.777,0,14.629,5.851,14.629,14.629S430.08,84.846,422.766,84.846z"/>
</g>
<path style="fill:#4D007E;" d="M168.229,367.177L92.16,314.514c-4.389-2.926-5.851-7.314-5.851-11.703c0-4.389,2.926-8.777,5.851-11.703l76.069-54.126
	c7.314-4.389,16.091-2.926,20.48,2.926c4.389,7.314,2.926,16.091-2.926,20.48l-59.977,42.423l59.977,42.423
	c7.314,4.389,8.777,13.166,2.926,20.48C184.32,371.566,175.543,373.029,168.229,367.177z"/>
<path style="fill:#4D007E;" d="M308.663,364.251c-4.389-7.314-2.926-16.091,2.926-20.48l59.977-42.423l-59.977-42.423
	c-7.314-4.389-8.777-13.166-2.926-20.48c4.389-7.314,13.166-8.777,20.48-2.926l76.069,54.126c4.389,2.926,5.851,7.314,5.851,11.703
	c0,4.389-2.926,8.777-5.851,11.703l-76.069,54.126C321.829,373.029,313.051,371.566,308.663,364.251z"/>
<path style="fill:#4D007E;" d="M220.891,390.583c-7.314-2.926-11.703-10.24-10.24-19.017L256,225.28c2.926-7.314,10.24-11.703,19.017-10.24
	c7.314,2.926,11.703,10.24,10.24,19.017l-45.349,146.286C236.983,389.12,228.206,393.509,220.891,390.583z"/>
<g>
</g>
<g>
</g>
<g>
</g>
<g>
</g>
<g>
</g>
<g>
</g>
<g>
</g>
<g>
</g>
<g>
</g>
<g>
</g>
<g>
</g>
<g>
</g>
<g>
</g>
<g>
</g>
<g>
</g>
</svg>
