<?xml version="1.0" encoding="iso-8859-1"?>
<!-- Generator: Adobe Illustrator 19.0.0, SVG Export Plug-In . SVG Version: 6.00 Build 0)  -->
<svg version="1.1" id="Capa_1" xmlns="http://www.w3.org/2000/svg" xmlns:xlink="http://www.w3.org/1999/xlink" x="0px" y="0px"
	 viewBox="0 0 512 512" style="enable-background:new 0 0 512 512;" xml:space="preserve">
<path style="fill:#E7ECED;" d="M366.933,494.933H145.067c-9.429,0-17.067-7.637-17.067-17.067l0,0
	c0-9.429,7.637-17.067,17.067-17.067h221.867c9.429,0,17.067,7.637,17.067,17.067l0,0C384,487.296,376.363,494.933,366.933,494.933z
	"/>
<path style="fill:#AFB6BB;" d="M298.667,392.533v-17.067h-85.333v17.067c0,37.734-13.466,68.267-51.2,68.267h187.733
	C312.132,460.8,298.667,430.268,298.667,392.533z"/>
<path style="fill:#E7ECED;" d="M477.858,392.533H34.142c-14.14,0-25.609-11.469-25.609-25.609v-51.191h494.933v51.191
	C503.467,381.065,491.998,392.533,477.858,392.533z"/>
<path style="fill:#204872;" d="M435.2,17.067H76.8H34.142c-14.14,0-25.609,11.469-25.609,25.609v281.591H76.8h128h102.4h128h68.267
	V42.675c0-14.14-11.469-25.609-25.609-25.609H435.2z"/>
<rect x="238.933" y="51.2" style="fill:#28384C;" width="230.4" height="273.067"/>
<rect x="42.667" y="51.2" style="fill:#EBBA16;" width="213.333" height="273.067"/>
<g>
	<path style="fill:#4D007E;" d="M503.467,332.8H8.533c-4.71,0-8.533-3.823-8.533-8.533V42.675C0,23.851,15.317,8.533,34.142,8.533
		h443.716C496.683,8.533,512,23.851,512,42.675v281.591C512,328.977,508.177,332.8,503.467,332.8z M17.067,315.733h477.867V42.675
		c0-9.421-7.663-17.075-17.075-17.075H34.142c-9.412,0-17.075,7.654-17.075,17.075V315.733z"/>
	<path style="fill:#4D007E;" d="M477.858,401.067H34.142C15.317,401.067,0,385.749,0,366.925v-42.658
		c0-4.71,3.823-8.533,8.533-8.533h494.933c4.71,0,8.533,3.823,8.533,8.533v42.658C512,385.749,496.683,401.067,477.858,401.067z
		 M17.067,332.8v34.125c0,9.421,7.663,17.075,17.075,17.075h443.716c9.412,0,17.075-7.654,17.075-17.075V332.8H17.067z"/>
	<path style="fill:#4D007E;" d="M281.6,366.933h-51.2c-4.71,0-8.533-3.823-8.533-8.533s3.823-8.533,8.533-8.533h51.2
		c4.71,0,8.533,3.823,8.533,8.533S286.31,366.933,281.6,366.933z"/>
	<path style="fill:#4D007E;" d="M469.333,332.8H42.667c-4.71,0-8.533-3.823-8.533-8.533V51.2c0-4.71,3.823-8.533,8.533-8.533
		h426.667c4.71,0,8.533,3.823,8.533,8.533v273.067C477.867,328.977,474.044,332.8,469.333,332.8z M51.2,315.733h409.6v-256H51.2
		V315.733z"/>
	<path style="fill:#4D007E;" d="M366.933,503.467H145.067c-14.114,0-25.6-11.486-25.6-25.6s11.486-25.6,25.6-25.6h221.867
		c14.114,0,25.6,11.486,25.6,25.6S381.047,503.467,366.933,503.467z M145.067,469.333c-4.71,0-8.533,3.831-8.533,8.533
		c0,4.702,3.823,8.533,8.533,8.533h221.867c4.71,0,8.533-3.831,8.533-8.533c0-4.702-3.823-8.533-8.533-8.533H145.067z"/>
	<path style="fill:#4D007E;" d="M349.867,469.333H162.133c-4.71,0-8.533-3.823-8.533-8.533s3.823-8.533,8.533-8.533
		c28.314,0,42.667-20.096,42.667-59.733c0-4.71,3.823-8.533,8.533-8.533h85.333c4.71,0,8.533,3.823,8.533,8.533
		c0,39.637,14.353,59.733,42.667,59.733c4.71,0,8.533,3.823,8.533,8.533S354.577,469.333,349.867,469.333z M203.699,452.267h104.61
		c-10.513-11.639-16.7-28.971-17.937-51.2h-68.736C220.39,423.296,214.204,440.627,203.699,452.267z"/>
	<path style="fill:#4D007E;" d="M256,332.8H42.667c-4.71,0-8.533-3.823-8.533-8.533V51.2c0-4.71,3.823-8.533,8.533-8.533H256
		c4.71,0,8.533,3.823,8.533,8.533v273.067C264.533,328.977,260.71,332.8,256,332.8z M51.2,315.733h196.267v-256H51.2V315.733z"/>
	<path style="fill:#4D007E;" d="M136.525,298.667c-1.28,0-2.586-0.29-3.814-0.896c-4.215-2.108-5.922-7.236-3.814-11.452l25.6-51.2
		c2.108-4.215,7.245-5.922,11.452-3.814c4.215,2.108,5.922,7.236,3.814,11.452l-25.6,51.2
		C142.669,296.943,139.657,298.667,136.525,298.667z"/>
	<path style="fill:#4D007E;" d="M76.8,273.067c-2.185,0-4.369-0.836-6.033-2.5c-3.337-3.337-3.337-8.73,0-12.066l25.6-25.6
		c3.328-3.337,8.738-3.337,12.066,0c3.337,3.337,3.337,8.73,0,12.066l-25.6,25.6C81.169,272.23,78.985,273.067,76.8,273.067z"/>
	<path style="fill:#4D007E;" d="M102.4,298.667c-2.185,0-4.369-0.836-6.033-2.5l-25.6-25.6c-3.337-3.337-3.337-8.73,0-12.066
		c3.328-3.337,8.738-3.337,12.066,0l25.6,25.6c3.337,3.337,3.337,8.73,0,12.066C106.769,297.83,104.585,298.667,102.4,298.667z"/>
	<path style="fill:#4D007E;" d="M221.867,273.067c-2.185,0-4.369-0.836-6.033-2.5l-25.6-25.6c-3.337-3.337-3.337-8.73,0-12.066
		c3.328-3.337,8.738-3.337,12.066,0l25.6,25.6c3.337,3.337,3.337,8.73,0,12.066C226.236,272.23,224.051,273.067,221.867,273.067z"/>
	<path style="fill:#4D007E;" d="M196.267,298.667c-2.185,0-4.369-0.836-6.033-2.5c-3.337-3.337-3.337-8.73,0-12.066l25.6-25.6
		c3.328-3.337,8.738-3.337,12.066,0c3.337,3.337,3.337,8.73,0,12.066l-25.6,25.6C200.636,297.83,198.451,298.667,196.267,298.667z"
		/>
	<path style="fill:#4D007E;" d="M153.6,153.6c-4.71,0-8.533-3.823-8.533-8.533V85.333c0-4.71,3.823-8.533,8.533-8.533
		s8.533,3.823,8.533,8.533v59.733C162.133,149.777,158.31,153.6,153.6,153.6z"/>
	<path style="fill:#4D007E;" d="M153.6,204.8c-4.71,0-8.533-3.823-8.533-8.533V179.2c0-4.71,3.823-8.533,8.533-8.533
		s8.533,3.823,8.533,8.533v17.067C162.133,200.977,158.31,204.8,153.6,204.8z"/>
	<path style="fill:#4D007E;" d="M375.467,93.867h-85.333c-4.71,0-8.533-3.823-8.533-8.533c0-4.71,3.823-8.533,8.533-8.533h85.333
		c4.71,0,8.533,3.823,8.533,8.533C384,90.044,380.177,93.867,375.467,93.867z"/>
	<path style="fill:#4D007E;" d="M435.2,93.867h-25.6c-4.71,0-8.533-3.823-8.533-8.533c0-4.71,3.823-8.533,8.533-8.533h25.6
		c4.71,0,8.533,3.823,8.533,8.533C443.733,90.044,439.91,93.867,435.2,93.867z"/>
	<path style="fill:#4D007E;" d="M435.2,128h-85.333c-4.71,0-8.533-3.823-8.533-8.533c0-4.71,3.823-8.533,8.533-8.533H435.2
		c4.71,0,8.533,3.823,8.533,8.533C443.733,124.177,439.91,128,435.2,128z"/>
	<path style="fill:#4D007E;" d="M315.733,128h-25.6c-4.71,0-8.533-3.823-8.533-8.533c0-4.71,3.823-8.533,8.533-8.533h25.6
		c4.71,0,8.533,3.823,8.533,8.533C324.267,124.177,320.444,128,315.733,128z"/>
	<path style="fill:#4D007E;" d="M375.467,162.133h-85.333c-4.71,0-8.533-3.823-8.533-8.533s3.823-8.533,8.533-8.533h85.333
		c4.71,0,8.533,3.823,8.533,8.533S380.177,162.133,375.467,162.133z"/>
	<path style="fill:#4D007E;" d="M435.2,162.133h-25.6c-4.71,0-8.533-3.823-8.533-8.533s3.823-8.533,8.533-8.533h25.6
		c4.71,0,8.533,3.823,8.533,8.533S439.91,162.133,435.2,162.133z"/>
	<path style="fill:#4D007E;" d="M435.2,196.267h-85.333c-4.71,0-8.533-3.823-8.533-8.533c0-4.71,3.823-8.533,8.533-8.533H435.2
		c4.71,0,8.533,3.823,8.533,8.533C443.733,192.444,439.91,196.267,435.2,196.267z"/>
	<path style="fill:#4D007E;" d="M315.733,196.267h-25.6c-4.71,0-8.533-3.823-8.533-8.533c0-4.71,3.823-8.533,8.533-8.533h25.6
		c4.71,0,8.533,3.823,8.533,8.533C324.267,192.444,320.444,196.267,315.733,196.267z"/>
	<path style="fill:#4D007E;" d="M435.2,298.667h-85.333c-4.71,0-8.533-3.823-8.533-8.533c0-4.71,3.823-8.533,8.533-8.533H435.2
		c4.71,0,8.533,3.823,8.533,8.533C443.733,294.844,439.91,298.667,435.2,298.667z"/>
	<path style="fill:#4D007E;" d="M315.733,298.667h-25.6c-4.71,0-8.533-3.823-8.533-8.533c0-4.71,3.823-8.533,8.533-8.533h25.6
		c4.71,0,8.533,3.823,8.533,8.533C324.267,294.844,320.444,298.667,315.733,298.667z"/>
	<path style="fill:#4D007E;" d="M375.467,230.4h-85.333c-4.71,0-8.533-3.823-8.533-8.533c0-4.71,3.823-8.533,8.533-8.533h85.333
		c4.71,0,8.533,3.823,8.533,8.533C384,226.577,380.177,230.4,375.467,230.4z"/>
	<path style="fill:#4D007E;" d="M435.2,230.4h-25.6c-4.71,0-8.533-3.823-8.533-8.533c0-4.71,3.823-8.533,8.533-8.533h25.6
		c4.71,0,8.533,3.823,8.533,8.533C443.733,226.577,439.91,230.4,435.2,230.4z"/>
	<path style="fill:#4D007E;" d="M435.2,264.533h-85.333c-4.71,0-8.533-3.823-8.533-8.533c0-4.71,3.823-8.533,8.533-8.533H435.2
		c4.71,0,8.533,3.823,8.533,8.533C443.733,260.71,439.91,264.533,435.2,264.533z"/>
	<path style="fill:#4D007E;" d="M315.733,264.533h-25.6c-4.71,0-8.533-3.823-8.533-8.533c0-4.71,3.823-8.533,8.533-8.533h25.6
		c4.71,0,8.533,3.823,8.533,8.533C324.267,260.71,320.444,264.533,315.733,264.533z"/>
</g>
<g>
</g>
<g>
</g>
<g>
</g>
<g>
</g>
<g>
</g>
<g>
</g>
<g>
</g>
<g>
</g>
<g>
</g>
<g>
</g>
<g>
</g>
<g>
</g>
<g>
</g>
<g>
</g>
<g>
</g>
</svg>
